<svg xmlns="http://www.w3.org/2000/svg" xmlns:xlink="http://www.w3.org/1999/xlink" viewBox="-2 -2 20 20" width="512" height="512"><defs><linearGradient id="backgroundGradient" gradientUnits="userSpaceOnUse" x1="-2" y1="-2" x2="-2" y2="18"><stop offset="0%" stop-color="#7062ff"/><stop offset="100%" stop-color="#5248d0"/></linearGradient><linearGradient id="fadeFill" gradientUnits="userSpaceOnUse" x1="-2" y1="18" x2="-2" y2="-2" gradientTransform="rotate(0 8 8)"><stop offset="0%" stop-color="#FFFFFF" stop-opacity="0.75"/><stop offset="100%" stop-color="#FFFFFF" stop-opacity="0.95"/></linearGradient><linearGradient id="diagOutline" gradientUnits="userSpaceOnUse" x1="-2" y1="-2" x2="18" y2="18" gradientTransform="rotate(0 8 8)"><stop offset="0%" stop-color="white" stop-opacity="0.95"/><stop offset="20%" stop-color="white" stop-opacity="0.95"/><stop offset="40%" stop-color="white" stop-opacity="0"/><stop offset="60%" stop-color="white" stop-opacity="0"/><stop offset="80%" stop-color="white" stop-opacity="0.65"/><stop offset="100%" stop-color="white" stop-opacity="0.65"/></linearGradient><g id="iconShape" transform="translate(8 8) rotate(0) scale(0.875) translate(-8 -8)"><path d="M12.433 10.07C14.133 10.585 16 11.15 16 8a8 8 0 1 0-8 8c1.996 0 1.826-1.504 1.649-3.08-.124-1.101-.252-2.237.351-2.92.465-.527 1.42-.237 2.433.07M8 5a1.5 1.5 0 1 1 0-3 1.5 1.5 0 0 1 0 3m4.5 3a1.5 1.5 0 1 1 0-3 1.5 1.5 0 0 1 0 3M5 6.5a1.5 1.5 0 1 1-3 0 1.5 1.5 0 0 1 3 0m.5 6.5a1.5 1.5 0 1 1 0-3 1.5 1.5 0 0 1 0 3"/></g><mask id="innerStrokeMask" maskUnits="userSpaceOnUse" maskContentUnits="userSpaceOnUse" x="-2" y="-2" width="20" height="20"><g id="maskShapes" fill="white" transform="translate(8 8) rotate(0) scale(0.875) translate(-8 -8)"><path d="M12.433 10.07C14.133 10.585 16 11.15 16 8a8 8 0 1 0-8 8c1.996 0 1.826-1.504 1.649-3.08-.124-1.101-.252-2.237.351-2.92.465-.527 1.42-.237 2.433.07M8 5a1.5 1.5 0 1 1 0-3 1.5 1.5 0 0 1 0 3m4.5 3a1.5 1.5 0 1 1 0-3 1.5 1.5 0 0 1 0 3M5 6.5a1.5 1.5 0 1 1-3 0 1.5 1.5 0 0 1 3 0m.5 6.5a1.5 1.5 0 1 1 0-3 1.5 1.5 0 0 1 0 3" fill="white"/></g></mask></defs><rect x="-2" y="-2" width="20" height="20" rx="5" ry="5" fill="url(#backgroundGradient)"/><g mask="url(#innerStrokeMask)"><use xmlns:xlink="http://www.w3.org/1999/xlink" xlink:href="#iconShape" fill="none" stroke="url(#diagOutline)" stroke-width="0.75" stroke-linejoin="round" stroke-linecap="round"/></g><use xmlns:xlink="http://www.w3.org/1999/xlink" xlink:href="#iconShape" fill="url(#fadeFill)"/></svg>